<svg width="24" height="24" viewBox="0 0 24 24" fill="none" xmlns="http://www.w3.org/2000/svg">
<path d="M12 22C17.5228 22 22 17.5228 22 12C22 6.47715 17.5228 2 12 2C6.47715 2 2 6.47715 2 12C2 17.5228 6.47715 22 12 22Z" fill="#FF6366"/>
<path d="M12.7826 7.78261C12.7826 7.35039 12.4322 7 12 7C11.5678 7 11.2174 7.35039 11.2174 7.78261L11.2174 11.2174H7.78261C7.35039 11.2174 7 11.5678 7 12C7 12.4322 7.35039 12.7826 7.78261 12.7826H11.2174V16.2174C11.2174 16.6496 11.5678 17 12 17C12.4322 17 12.7826 16.6496 12.7826 16.2174V12.7826H16.2174C16.6496 12.7826 17 12.4322 17 12C17 11.5678 16.6496 11.2174 16.2174 11.2174H12.7826L12.7826 7.78261Z" fill="white"/>
</svg>
